<?xml version="1.0" encoding="UTF-8"?>
<svg xmlns="http://www.w3.org/2000/svg" xmlns:xlink="http://www.w3.org/1999/xlink" width="150px" height="150px" viewBox="0 0 150 150" version="1.1">
<defs>
<filter id="alpha" filterUnits="objectBoundingBox" x="0%" y="0%" width="100%" height="100%">
  <feColorMatrix type="matrix" in="SourceGraphic" values="0 0 0 0 1 0 0 0 0 1 0 0 0 0 1 0 0 0 1 0"/>
</filter>
<mask id="mask0">
  <g filter="url(#alpha)">
<rect x="0" y="0" width="150" height="150" style="fill:rgb(0%,0%,0%);fill-opacity:0.25098;stroke:none;"/>
  </g>
</mask>
<clipPath id="clip1">
  <rect x="0" y="0" width="150" height="150"/>
</clipPath>
<g id="surface5" clip-path="url(#clip1)">
<path style=" stroke:none;fill-rule:nonzero;fill:rgb(0%,0%,0%);fill-opacity:1;" d="M 24.480469 103.804688 C 22.167969 100.03125 20.941406 95.6875 20.945312 91.257812 C 20.9375 89.777344 21.074219 88.300781 21.347656 86.847656 C 23.433594 75.539062 33.289062 67.324219 44.785156 67.308594 C 44.816406 56.183594 52.507812 46.546875 63.34375 44.042969 L 63.21875 44.042969 C 61.523438 43.660156 59.796875 43.476562 58.0625 43.488281 C 44.910156 43.523438 34.246094 54.15625 34.175781 67.308594 C 22.675781 67.324219 12.824219 75.539062 10.738281 86.847656 C 10.464844 88.300781 10.328125 89.777344 10.335938 91.257812 C 10.332031 95.6875 11.554688 100.03125 13.871094 103.804688 C 14.988281 105.554688 16.929688 106.601562 19.003906 106.578125 L 29.660156 106.578125 C 27.570312 106.617188 25.609375 105.566406 24.480469 103.804688 Z M 24.480469 103.804688 "/>
</g>
</defs>
<g id="surface1">
<path style="fill-rule:nonzero;fill:rgb(100%,100%,100%);fill-opacity:1;stroke-width:2;stroke-linecap:round;stroke-linejoin:round;stroke:rgb(0%,0%,0%);stroke-opacity:1;stroke-miterlimit:4;" d="M 60.680864 45.579749 C 60.152862 46.362585 59.263693 46.82642 58.319523 46.80992 L 5.700855 46.80992 C 4.725518 46.822753 3.814349 46.329585 3.290014 45.510082 C 2.202844 43.737243 1.629008 41.69857 1.630842 39.619563 C 1.627175 38.924728 1.691342 38.231726 1.819676 37.549723 C 2.798679 32.242206 7.42236 28.386694 12.819711 28.379361 C 12.841711 22.184508 17.874227 17.173991 24.070914 17.179492 C 24.883083 17.173991 25.695252 17.261992 26.489088 17.439826 C 30.537101 18.327162 33.767445 21.372338 34.889448 25.359851 C 35.897785 25.066517 36.940955 24.918016 37.989625 24.91985 C 40.833134 24.90885 43.564809 26.016186 45.599816 27.999859 C 46.127817 28.498528 46.598986 29.055863 47.000487 29.660865 C 50.05483 28.300527 53.560175 28.405027 56.530184 29.941366 C 59.49836 31.477704 61.6067 34.28088 62.259369 37.560723 C 62.68837 40.336399 62.129202 43.174408 60.680864 45.579749 Z M 60.680864 45.579749 " transform="matrix(2.130675,0,0,2.130675,6.818175,6.817962)"/>
<path style="fill:none;stroke-width:2;stroke-linecap:round;stroke-linejoin:round;stroke:rgb(0%,0%,0%);stroke-opacity:1;stroke-miterlimit:4;" d="M 25.530252 21.159571 C 28.496594 21.392405 30.762602 23.905913 30.689268 26.879589 " transform="matrix(2.130675,0,0,2.130675,6.818175,6.818175)"/>
<path style="fill:none;stroke-width:2;stroke-linecap:round;stroke-linejoin:round;stroke:rgb(0%,0%,0%);stroke-opacity:1;stroke-miterlimit:4;" d="M 34.249613 29.13083 C 34.249613 29.13083 40.629633 25.660319 43.909477 32.410674 " transform="matrix(2.130675,0,0,2.130675,6.818175,6.818388)"/>
<use xlink:href="#surface5" mask="url(#mask0)"/>
<path style="fill:none;stroke-width:2;stroke-linecap:round;stroke-linejoin:miter;stroke:rgb(43.921569%,42.745098%,42.745098%);stroke-opacity:1;stroke-miterlimit:4;" d="M 5.000687 9.999778 C 7.760578 9.999778 10.000403 7.761922 10.000403 5.000062 C 10.000403 2.238201 7.760578 0.000345449 5.000687 0.000345449 C 2.238826 0.000345449 0.000970788 2.238201 0.000970788 5.000062 " transform="matrix(1.982925,0,0,1.982925,33.54495,78.85869)"/>
<path style="fill:none;stroke-width:2;stroke-linecap:round;stroke-linejoin:miter;stroke:rgb(43.921569%,42.745098%,42.745098%);stroke-opacity:1;stroke-miterlimit:4;" d="M -0.000715483 9.999778 L 10.000687 9.999778 " transform="matrix(1.982925,0,0,1.982925,23.630325,78.85869)"/>
<path style="fill:none;stroke-width:2;stroke-linecap:round;stroke-linejoin:miter;stroke:rgb(43.921569%,42.745098%,42.745098%);stroke-opacity:1;stroke-miterlimit:4;" d="M 0.0000157595 0.999718 L 14.000403 0.999718 " transform="matrix(1.982925,0,0,1.982925,25.61325,112.568415)"/>
<path style="fill:none;stroke-width:2;stroke-linecap:round;stroke-linejoin:miter;stroke:rgb(43.921569%,42.745098%,42.745098%);stroke-opacity:1;stroke-miterlimit:4;" d="M 11.00018 3.999942 C 11.00018 5.656664 12.343681 7.000166 14.000403 7.000166 C 15.657126 7.000166 17.000627 5.656664 17.000627 3.999942 C 17.000627 2.34322 15.657126 0.999718 14.000403 0.999718 " transform="matrix(1.982925,0,0,1.982925,25.61325,112.568415)"/>
<path style="fill:none;stroke-width:2;stroke-linecap:round;stroke-linejoin:miter;stroke:rgb(43.921569%,42.745098%,42.745098%);stroke-opacity:1;stroke-miterlimit:4;" d="M 20.999289 10.000733 C 23.761149 10.000733 26.000975 7.760907 26.000975 4.999047 C 26.000975 2.239156 23.761149 -0.000669466 20.999289 -0.000669466 C 20.703797 -0.000669466 20.414215 0.0249398 20.130543 0.0761583 " transform="matrix(1.982925,0,0,1.982925,19.664673,86.79039)"/>
<path style="fill:none;stroke-width:2;stroke-linecap:round;stroke-linejoin:miter;stroke:rgb(43.921569%,42.745098%,42.745098%);stroke-opacity:1;stroke-miterlimit:4;" d="M -0.000208026 10.000733 L 20.999389 10.000733 " transform="matrix(1.982925,0,0,1.982925,19.664475,86.79039)"/>
<path style="fill:none;stroke-width:2;stroke-linecap:round;stroke-linejoin:miter;stroke:rgb(43.921569%,42.745098%,42.745098%);stroke-opacity:1;stroke-miterlimit:4;" d="M 4.999472 10.000368 C 7.760551 10.000368 9.999635 7.761284 9.999635 5.000205 C 9.999635 2.239126 7.760551 0.0000414456 4.999472 0.0000414456 C 2.238393 0.0000414456 -0.000691388 2.239126 -0.000691388 5.000205 " transform="matrix(1.99056,0,0,1.99056,90.856845,86.69523)"/>
<path style="fill:none;stroke-width:2;stroke-linecap:round;stroke-linejoin:miter;stroke:rgb(43.921569%,42.745098%,42.745098%);stroke-opacity:1;stroke-miterlimit:4;" d="M -0.000854659 10.000368 L 9.999472 10.000368 " transform="matrix(1.99056,0,0,1.99056,80.904045,86.69523)"/>
<path style="fill:none;stroke-width:2;stroke-linecap:round;stroke-linejoin:miter;stroke:rgb(43.921569%,42.745098%,42.745098%);stroke-opacity:1;stroke-miterlimit:4;" d="M -0.0000370499 0.999059 L 13.999635 0.999059 " transform="matrix(1.99056,0,0,1.99056,82.894605,120.53475)"/>
<path style="fill:none;stroke-width:2;stroke-linecap:round;stroke-linejoin:miter;stroke:rgb(43.921569%,42.745098%,42.745098%);stroke-opacity:1;stroke-miterlimit:4;" d="M 10.999145 3.99955 C 10.999145 5.657767 12.34338 7.00004 13.999635 7.00004 C 15.65589 7.00004 17.000126 5.657767 17.000126 3.99955 C 17.000126 2.343295 15.65589 0.999059 13.999635 0.999059 " transform="matrix(1.99056,0,0,1.99056,82.894605,120.53475)"/>
<path style="fill:none;stroke-width:2;stroke-linecap:round;stroke-linejoin:miter;stroke:rgb(43.921569%,42.745098%,42.745098%);stroke-opacity:1;stroke-miterlimit:4;" d="M 21.000843 9.999714 C 23.761922 9.999714 25.999044 7.76063 25.999044 4.99955 C 25.999044 2.238471 23.761922 -0.000612893 21.000843 -0.000612893 C 20.704523 -0.000612893 20.414089 0.0248981 20.131506 0.0759202 " transform="matrix(1.99056,0,0,1.99056,76.923124,94.65747)"/>
<path style="fill:none;stroke-width:2;stroke-linecap:round;stroke-linejoin:miter;stroke:rgb(43.921569%,42.745098%,42.745098%);stroke-opacity:1;stroke-miterlimit:4;" d="M -0.00052749 9.999714 L 21.000943 9.999714 " transform="matrix(1.99056,0,0,1.99056,76.922925,94.65747)"/>
</g>
</svg>
