<svg xmlns="http://www.w3.org/2000/svg" viewBox="0 0 48 48"><defs><style>.cls-1{fill:#fc6;}.cls-2{fill:#ffde76;}.cls-3{fill:#dad7e5;}.cls-4{fill:#edebf2;}.cls-5{fill:#f26674;}.cls-6{fill:#425b72;}.cls-7{fill:#db5669;}.cls-8{fill:#ffba55;}.cls-9{fill:#374f68;}</style></defs><title>Pressure Meter</title><g id="Pressure_Meter" data-name="Pressure Meter"><polygon class="cls-1" points="31 29.27 31 35 29 37 19 37 17 35 17 29.27 31 29.27"/><path class="cls-2" d="M31,29.27V35c-9.95,0-9.8.2-10.59-.59-1.62-1.62-1.41-1-1.41-5.14Z"/><path class="cls-3" d="M39,16c0,3.87-1.71,7.82-3.46,9.57C26.63,36.37,9,30,9,16A14.93,14.93,0,0,1,14.43,4.46l0,0C24.11-3.55,39,3.24,39,16Z"/><path class="cls-4" d="M39,16c0,3.87-1.71,7.82-3.46,9.57C25.88,33.55,11,26.75,11,14c0-5.2,3-9.36,3.46-9.57C24.11-3.55,39,3.24,39,16Z"/><rect class="cls-1" x="19" y="37" width="10" height="10"/><path class="cls-2" d="M29,37v8H24a3,3,0,0,1-3-3V37Z"/><path class="cls-5" d="M32.71,20.91a10,10,0,1,0-17.41,0A1,1,0,1,1,13.6,22a12,12,0,1,1,20.8,0A1,1,0,1,1,32.71,20.91Z"/><path class="cls-5" d="M23,7V5a1,1,0,0,1,2,0V7A1,1,0,0,1,23,7Z"/><path class="cls-5" d="M19.5,9.21c-.73,0-.84-.46-1.87-2.24a1,1,0,0,1,1.74-1l1,1.74A1,1,0,0,1,19.5,9.21Z"/><path class="cls-5" d="M16.2,12.5c-.35,0-.36-.06-2.23-1.13a1,1,0,0,1,1-1.74l1.74,1A1,1,0,0,1,16.2,12.5Z"/><path class="cls-5" d="M15,17H13a1,1,0,0,1,0-2h2A1,1,0,0,1,15,17Z"/><path class="cls-5" d="M14.47,22.5a1,1,0,0,1-.5-1.87l1.74-1a1,1,0,0,1,1,1.74C14.85,22.44,14.84,22.5,14.47,22.5Z"/><path class="cls-5" d="M28.5,9.21a1,1,0,0,1-.87-1.5l1-1.74a1,1,0,0,1,1.74,1C29.32,8.78,29.21,9.21,28.5,9.21Z"/><path class="cls-5" d="M31.79,12.5a1,1,0,0,1-.5-1.87l1.74-1a1,1,0,0,1,1,1.74C32.17,12.44,32.16,12.5,31.79,12.5Z"/><path class="cls-5" d="M35,17H33a1,1,0,0,1,0-2h2A1,1,0,0,1,35,17Z"/><path class="cls-5" d="M33.53,22.5c-.36,0-.37-.06-2.24-1.13a1,1,0,0,1,1-1.74l1.74,1A1,1,0,0,1,33.53,22.5Z"/><path class="cls-6" d="M23,14V11a1,1,0,0,1,2,0v3A1,1,0,0,1,23,14Z"/><rect class="cls-7" x="20" y="22" width="8" height="4"/><path class="cls-5" d="M28,22v2H24a2,2,0,0,1-2-2Z"/><path class="cls-8" d="M18,42a1,1,0,0,1-.08-2l12-1a1,1,0,0,1,.16,2C16.34,42.14,18.14,42,18,42Z"/><path class="cls-8" d="M18,46a1,1,0,0,1-.08-2l12-1a1,1,0,0,1,.16,2C16.34,46.14,18.14,46,18,46Z"/><path class="cls-9" d="M26,16a2,2,0,1,1-2.82-1.82A2,2,0,0,1,26,16Z"/><path class="cls-6" d="M25.82,16.82a2,2,0,0,1-2.64-2.64A2,2,0,0,1,25.82,16.82Z"/></g></svg>